# xmcd
#
# Track frame offsets: 
#        150
#        18570
#        33268
#        48116
#        59420
#        76290
#        102880
#        122006
#        139156
#        153098
#        175101
#        193532
#        212845
#        234503
#
# Disc length: 3315 seconds
#
# Revision: 2
# Processed by: cddbd v1.5.1PL0 Copyright (c) Steve Scherf et al.
# Submitted via: ExactAudioCopy v0.90b3
#
DISCID=b00cf10e
DTITLE=W.C. Clark - Deep In The Heart
DYEAR=2004
DGENRE=Blues
TTITLE0=Stronger Than You Need To Be
TTITLE1=Cold Blooded Lover
TTITLE2=You Left The Water Running
TTITLE3=I Want To Do Everything To You
TTITLE4=Twist Of The Knife
TTITLE5=Tip Of My Tounge
TTITLE6=Jaded Lady
TTITLE7=Ain't Lost Nothin'
TTITLE8=Soul Kind Of Loving
TTITLE9=My Texas Home
TTITLE10=I Didn't Know The Meaning Of Pain
TTITLE11=If You Think About
TTITLE12=Promises
TTITLE13=Okie Dokee Stomp
EXTD=
EXTT0=
EXTT1=
EXTT2=
EXTT3=
EXTT4=
EXTT5=
EXTT6=
EXTT7=
EXTT8=
EXTT9=
EXTT10=
EXTT11=
EXTT12=
EXTT13=
PLAYORDER=
